{"title":"White.Material.2009.BRrip.XviD - CODY","uid":6088754,"size":773103557,"categoryP":"video","categoryS":"movies","magnet":"?xt=urn:btih:bff5d040c93d7f9096931894793d60dd435b7481&amp;dn=White.Material.2009.BRrip.XviD+-+CODY&amp;tr=udp%3A%2F%2Ftracker.openbittorrent.com%3A80&amp;tr=udp%3A%2F%2Fopen.demonii.com%3A1337&amp;tr=udp%3A%2F%2Ftracker.coppersurfer.tk%3A6969&amp;tr=udp%3A%2F%2Fexodus.desync.com%3A6969","seeders":4,"leechers":1,"uploader":"CODYBOSS1969","files":6,"time":1294455063,"description":"General\nComplete name : White.Material.2009.BRrip.XviD - CODY.avi\nFormat : AVI\nFormat/Info : Audio Video Interleave\nFormat profile : OpenDML\nFile size : 737 MiB\nDuration : 1h 45mn\nOverall bit rate : 977 Kbps\nWriting application : Lavf52.17.0\n\nVideo\nID : 0\nFormat : MPEG-4 Visual\nFormat profile : Advanced Simple@L5\nFormat settings, BVOP : Yes\nFormat settings, QPel : No\nFormat settings, GMC : No warppoints\nFormat settings, Matrix : Default (H.263)\nCodec ID : XVID\nCodec ID/Hint : XviD\nDuration : 1h 45mn\nBit rate : 848 Kbps\nWidth : 640 pixels\nHeight : 272 pixels\nDisplay aspect ratio : 2.35:1\nFrame rate : 24.000 fps\nColor space : YUV\nChroma subsampling : 4:2:0\nBit depth : 8 bits\nScan type : Progressive\nCompression mode : Lossy\nBits/(Pixel*Frame) : 0.203\nStream size : 640 MiB (87%)\nWriting library : XviD 1.2.0.dev47 (UTC 2006-11-01)\n\nAudio\nID : 1\nFormat : MPEG Audio\nFormat version : Version 1\nFormat profile : Layer 3\nCodec ID : 55\nCodec ID/Hint : MP3\nDuration : 1h 45mn\nBit rate mode : Variable\nBit rate : 120 Kbps\nNominal bit rate : 128 Kbps\nChannel(s) : 2 channels\nSampling rate : 48.0 KHz\nCompression mode : Lossy\nStream size : 90.7 MiB (12%)\nAlignment : Aligned on interleaves\nInterleave, duration : 24 ms (0.58 video frame)\nInterleave, preload duration : 70 ms\nWriting library : LAME3.97\nEncoding settings : -m s -V 4 -q 2 -lowpass 17 --abr 128\n\nIMDB: [url]http://www.imdb.com/title/tt1135952/\n\n\nSubtitles included: English, Romanian\n","torrent":{"xt":"urn:btih:bff5d040c93d7f9096931894793d60dd435b7481","amp;dn":"White.Material.2009.BRrip.XviD+-+CODY","amp;tr":["udp%3A%2F%2Ftracker.openbittorrent.com%3A80","udp%3A%2F%2Fopen.demonii.com%3A1337","udp%3A%2F%2Ftracker.coppersurfer.tk%3A6969","udp%3A%2F%2Fexodus.desync.com%3A6969"],"infoHash":"bff5d040c93d7f9096931894793d60dd435b7481","infoHashBuffer":{"type":"Buffer","data":[191,245,208,64,201,61,127,144,150,147,24,148,121,61,96,221,67,91,116,129]},"announce":[],"urlList":[]}}